<?xml version="1.0" standalone="no"?>
<!DOCTYPE svg PUBLIC "-//W3C//DTD SVG 20010904//EN"
 "http://www.w3.org/TR/2001/REC-SVG-20010904/DTD/svg10.dtd">
<svg version="1.0" xmlns="http://www.w3.org/2000/svg"
 width="579.000000pt" height="238.000000pt" viewBox="0 0 579.000000 238.000000"
 preserveAspectRatio="xMidYMid meet">

<g transform="translate(0.000000,238.000000) scale(0.100000,-0.100000)"
fill="#fff" stroke="none">
<path d="M158 1813 c-10 -2 -18 -7 -18 -10 0 -4 21 -49 48 -101 l47 -96 0
-407 0 -407 -48 -93 c-37 -71 -45 -94 -35 -100 23 -15 332 -11 353 5 17 12 17
16 -17 72 -52 85 -61 129 -62 309 l-1 160 133 3 132 3 0 34 0 34 -132 3 -133
3 -3 254 c-1 140 1 258 5 262 11 11 200 -7 275 -26 34 -9 109 -38 164 -66 59
-28 115 -49 134 -49 l33 0 -6 68 c-4 37 -7 86 -7 110 l0 42 -422 -1 c-233 -1
-431 -3 -440 -6z"/>
<path d="M3480 1801 c0 -10 16 -52 35 -93 51 -107 58 -193 52 -588 -6 -346 -8
-362 -59 -437 -15 -23 -28 -53 -28 -67 l0 -26 179 0 c108 0 182 4 186 10 3 5
-13 42 -36 81 -42 70 -42 72 -50 197 l-7 127 37 33 c67 60 58 64 173 -81 168
-212 181 -237 148 -299 -35 -68 -34 -69 167 -66 147 3 178 5 178 17 0 8 -36
42 -79 75 -44 34 -140 126 -214 206 -142 153 -215 220 -238 220 -27 0 -13 21
47 68 122 94 235 172 297 203 83 41 71 53 -53 57 l-95 4 0 32 c0 58 82 161
161 202 44 22 153 44 225 44 l61 0 -10 -43 c-17 -77 36 -147 113 -147 130 0
153 186 27 221 -52 14 -280 5 -352 -14 -112 -31 -198 -95 -239 -180 -16 -32
-30 -87 -37 -144 l-12 -91 -142 -106 c-78 -58 -145 -106 -149 -106 -3 0 -6 55
-6 123 0 67 -3 227 -7 355 l-6 232 -134 0 c-124 0 -133 -1 -133 -19z"/>
<path d="M1043 1430 c-21 -9 -22 -11 -9 -48 8 -21 25 -59 38 -83 22 -42 23
-55 26 -281 l3 -238 -35 -79 c-20 -43 -36 -86 -36 -95 0 -14 20 -16 170 -16
137 0 172 3 176 14 3 8 -13 50 -35 95 l-41 81 0 235 0 235 41 29 c57 42 110
48 187 22 34 -12 68 -21 77 -21 20 0 35 40 35 90 0 49 -18 60 -98 60 -71 0
-140 -20 -193 -54 -21 -14 -41 -26 -44 -26 -3 0 -5 20 -5 45 l0 45 -117 -1
c-65 0 -128 -4 -140 -9z"/>
<path d="M2040 1426 c-110 -32 -185 -88 -247 -184 -62 -97 -83 -197 -64 -311
21 -129 112 -248 239 -312 65 -34 68 -34 201 -34 132 0 137 1 190 30 71 39
141 103 180 163 43 68 41 74 -26 70 l-56 -3 -20 -58 c-13 -41 -35 -75 -72
-115 l-53 -57 -69 1 c-84 1 -125 19 -192 85 -36 35 -65 80 -100 152 -27 56
-52 114 -56 130 l-5 27 360 0 c198 0 360 3 360 8 -1 38 -35 153 -57 193 -37
68 -133 155 -213 193 -56 26 -78 31 -160 33 -56 1 -113 -3 -140 -11z m116 -51
c49 -7 83 -29 151 -96 55 -55 118 -161 109 -185 -5 -12 -45 -14 -268 -12
l-263 3 1 66 c0 57 5 74 32 116 57 89 112 127 172 118 14 -2 43 -7 66 -10z"/>
<path d="M2985 1434 c-16 -3 -50 -12 -75 -21 -112 -41 -162 -103 -163 -204 0
-56 2 -62 39 -100 21 -23 102 -83 179 -135 154 -103 177 -122 218 -175 72 -94
-11 -168 -175 -157 -66 4 -88 15 -188 93 -25 19 -54 34 -65 32 -17 -2 -20 -11
-23 -57 l-3 -56 68 -21 c162 -52 366 -58 457 -14 132 64 144 236 24 351 -52
52 -89 77 -243 170 -142 85 -165 105 -165 140 0 60 66 102 160 102 55 0 72 -8
135 -62 72 -63 114 -64 115 -3 0 52 -17 71 -82 91 -67 21 -164 32 -213 26z"/>
<path d="M4566 1433 c-24 -4 -27 -8 -23 -31 3 -15 16 -54 31 -87 25 -59 26
-63 26 -313 l0 -253 -35 -71 c-19 -39 -32 -75 -29 -80 3 -4 70 -8 148 -8 179
0 181 1 136 97 -40 86 -49 175 -50 511 l0 242 -87 -1 c-49 -1 -101 -4 -117 -6z"/>
<path d="M5169 1410 c-46 -24 -131 -118 -127 -139 3 -13 16 -16 67 -15 l64 1
59 67 c53 59 64 66 96 66 60 0 98 -31 116 -91 9 -29 16 -75 16 -102 0 -47 -1
-49 -22 -42 -122 38 -162 40 -260 14 -97 -25 -186 -141 -196 -254 -10 -130 52
-236 174 -296 64 -32 65 -32 167 -24 134 11 243 12 290 2 l39 -8 -4 318 -3
318 -27 47 c-63 106 -171 158 -326 158 -66 -1 -96 -6 -123 -20z m189 -317 c84
-68 134 -206 113 -310 -18 -91 -54 -130 -129 -140 -122 -16 -234 127 -236 302
0 89 14 128 61 165 24 19 37 21 91 17 51 -4 71 -11 100 -34z"/>
</g>
</svg>
