<?xml version="1.0" standalone="no"?>
<!DOCTYPE svg PUBLIC "-//W3C//DTD SVG 20010904//EN"
 "http://www.w3.org/TR/2001/REC-SVG-20010904/DTD/svg10.dtd">
<svg version="1.0" xmlns="http://www.w3.org/2000/svg"
 width="807.000000pt" height="283.000000pt" viewBox="0 0 807.000000 283.000000"
 preserveAspectRatio="xMidYMid meet">

<g transform="translate(0.000000,283.000000) scale(0.100000,-0.100000)"
fill="#000000" stroke="none">
<path d="M1744 2251 c-45 -11 -53 -18 -60 -58 -5 -25 -2 -44 10 -63 20 -35 21
-121 1 -160 l-16 -30 -335 0 c-222 0 -342 -4 -356 -11 -11 -6 -28 -30 -39 -53
-16 -38 -18 -54 -10 -122 5 -44 15 -108 22 -144 13 -71 1 -182 -41 -375 -46
-212 -46 -314 -1 -446 20 -59 14 -57 155 -79 109 -16 319 -22 385 -10 51 9 57
8 103 -20 45 -28 140 -60 178 -60 52 0 89 23 139 85 33 41 63 67 80 71 69 15
122 38 132 55 6 11 10 41 9 67 -3 76 -2 78 45 133 57 67 70 127 34 165 -13 14
-19 28 -13 33 5 4 36 28 69 53 107 81 141 134 109 169 -34 38 -80 19 -186 -76
-39 -36 -75 -65 -78 -65 -10 0 -20 80 -20 149 0 161 -38 320 -97 411 -32 48
-37 63 -43 145 -4 49 -3 97 1 105 4 8 8 37 10 65 4 44 1 51 -21 62 -27 14
-116 16 -166 4z m144 -30 c21 -13 -41 -31 -104 -31 -40 0 -54 4 -54 14 0 8 10
17 23 19 41 8 122 7 135 -2z m9 -77 c-3 -3 -39 -8 -81 -11 -53 -4 -80 -2 -91
7 -26 21 -17 27 38 23 28 -3 70 0 92 4 31 7 41 6 43 -5 2 -7 2 -16 -1 -18z
m-6 -139 c7 -99 7 -100 -20 -122 -30 -27 -22 -30 15 -7 26 17 41 14 29 -6 -4
-6 -21 -20 -39 -31 -17 -10 -24 -19 -16 -19 8 0 26 9 40 20 30 24 40 25 40 5
0 -8 -18 -27 -40 -41 -22 -15 -38 -29 -35 -32 2 -3 23 7 45 22 22 15 45 24 51
21 14 -9 2 -24 -49 -56 -25 -16 -39 -29 -31 -29 8 0 32 12 52 26 21 14 41 23
45 19 12 -12 -14 -38 -63 -63 -26 -14 -43 -28 -37 -30 7 -2 34 10 62 27 29 18
52 26 55 20 12 -19 -3 -37 -54 -65 -28 -15 -51 -31 -51 -35 0 -5 22 5 49 21
50 31 71 37 71 21 0 -16 -30 -41 -82 -67 -28 -14 -48 -28 -45 -31 3 -3 32 9
63 26 64 34 76 37 68 18 -3 -8 -35 -29 -72 -47 -37 -18 -61 -35 -54 -38 7 -2
37 10 67 27 62 35 65 36 65 17 0 -12 -104 -86 -140 -99 -12 -4 -11 -6 2 -6 10
-1 42 15 72 34 30 19 60 35 66 35 27 0 -1 -28 -64 -64 -37 -21 -65 -40 -62
-43 2 -3 34 12 70 32 47 26 66 33 66 22 0 -19 -25 -40 -91 -77 -30 -17 -43
-28 -29 -25 14 4 46 19 71 35 l47 28 6 -37 c12 -72 10 -76 -56 -111 -35 -18
-76 -42 -91 -53 -16 -10 -30 -17 -32 -15 -3 2 -11 39 -20 82 -8 43 -35 128
-60 190 -95 230 -97 236 -75 236 25 0 50 37 50 73 0 16 -9 50 -20 76 -19 43
-20 49 -5 77 8 16 15 52 15 81 l0 52 58 4 c31 2 64 3 72 3 12 -1 16 -22 21
-101z m-193 -112 c6 -10 13 -33 17 -52 6 -28 5 -33 -8 -28 -12 5 -17 -3 -20
-31 -4 -36 -4 -36 -7 8 -2 40 -3 42 -9 16 -3 -16 -12 -31 -20 -34 -11 -4 -13
3 -8 32 3 20 2 36 -3 36 -5 0 -10 -17 -12 -37 -3 -37 -4 -38 -45 -41 l-43 -3
-2 48 -1 48 -6 -49 c-7 -58 -34 -79 -31 -25 3 55 -3 67 -9 20 -3 -25 -12 -46
-19 -49 -11 -3 -12 7 -8 44 4 34 3 43 -3 29 -5 -11 -10 -30 -10 -42 -1 -13 -6
-23 -12 -23 -7 0 -9 13 -5 38 5 27 4 33 -3 22 -6 -8 -11 -25 -11 -37 0 -14 -6
-23 -16 -23 -13 0 -15 7 -10 35 4 20 3 41 -1 48 -5 7 -10 -6 -13 -33 -7 -59
-26 -53 -22 7 3 31 0 43 -7 39 -6 -4 -11 -25 -11 -47 0 -29 -4 -39 -16 -39
-12 0 -15 7 -12 30 3 17 1 30 -3 30 -4 0 -9 -12 -11 -27 -2 -14 -9 -28 -15
-31 -9 -2 -11 6 -8 30 3 24 1 22 -7 -9 -14 -55 -44 -61 -34 -8 4 22 3 35 -4
35 -5 0 -10 -9 -10 -19 0 -25 -10 -51 -20 -51 -4 0 -6 21 -4 48 3 44 0 40 -12
-15 -8 -40 -25 -26 -19 15 5 27 4 33 -4 22 -6 -8 -11 -25 -11 -37 0 -14 -6
-23 -16 -23 -13 0 -15 7 -9 36 4 24 3 34 -4 29 -6 -3 -11 -19 -11 -34 0 -20
-6 -30 -20 -34 -18 -4 -19 -1 -14 37 4 27 1 55 -9 79 l-16 37 319 0 c294 0
320 -1 328 -17z m-663 -24 c19 -35 16 -100 -4 -107 -11 -4 -12 3 -7 31 4 19 2
38 -3 41 -15 10 -33 -22 -39 -70 -3 -30 -8 -41 -13 -32 -10 15 -1 124 13 151
13 26 36 21 53 -14z m641 -204 c15 -38 44 -109 66 -157 37 -83 77 -233 78
-288 0 -24 -9 -33 -79 -75 -57 -35 -241 -170 -241 -177 0 -5 30 12 68 38 l67
46 -45 -43 c-25 -23 -66 -62 -92 -86 -41 -37 -48 -50 -53 -91 -2 -26 -8 -60
-13 -77 l-8 -30 -93 -3 c-85 -3 -92 -1 -87 15 20 65 36 142 35 168 -1 19 -6 6
-14 -35 -22 -112 -35 -150 -50 -150 -19 0 -19 2 5 78 11 35 20 74 19 85 0 12
-9 -9 -20 -48 -19 -67 -43 -114 -54 -104 -2 3 2 29 10 59 8 30 14 66 14 80 -1
17 -4 13 -10 -15 -20 -89 -32 -125 -44 -125 -23 0 -23 12 1 83 27 78 28 85 15
72 -5 -6 -16 -35 -25 -65 -23 -78 -28 -84 -69 -76 l-36 7 16 45 c8 25 13 47
10 50 -3 3 -13 -17 -22 -45 -9 -30 -23 -51 -31 -51 -18 0 -18 -2 11 94 38 125
55 220 55 304 -1 122 -28 422 -45 482 -8 30 -15 65 -15 77 0 19 4 22 28 18 15
-3 50 -1 77 4 28 5 161 8 297 8 l247 -2 27 -70z m-675 -201 c-9 -28 -9 -29
-10 -3 -1 14 2 29 6 32 11 12 13 2 4 -29z m1319 -47 c0 -26 -44 -70 -133 -136
-45 -33 -64 -41 -83 -37 -13 4 -24 11 -24 16 0 16 202 180 222 180 12 0 18 -7
18 -23z m-1310 -49 c-6 -7 -17 -22 -26 -33 -8 -11 -5 0 7 25 12 25 24 40 26
33 3 -7 -1 -18 -7 -25z m-21 -87 c-43 -71 -49 -57 -8 19 19 34 35 55 37 47 2
-8 -11 -38 -29 -66z m1031 9 c-24 -15 -37 -11 -16 5 11 8 22 12 25 9 3 -3 -1
-9 -9 -14z m-990 -32 c0 -10 -4 -18 -9 -18 -4 0 -25 -26 -46 -57 -43 -65 -60
-57 -22 10 56 98 62 106 69 94 4 -7 8 -20 8 -29z m1103 -64 c55 -36 48 -79
-25 -165 -48 -55 -58 -59 -58 -26 0 12 -7 46 -14 75 -12 43 -12 52 -1 52 8 0
16 -17 20 -40 4 -22 11 -40 16 -40 5 0 6 15 2 33 l-6 32 21 -19 c12 -11 22
-15 22 -9 0 5 -9 18 -20 28 -11 10 -20 31 -20 46 0 30 -15 47 -23 27 -3 -7 -6
-2 -8 12 -1 21 -3 19 -9 -10 -7 -34 -7 -34 -9 13 l-1 47 38 -15 c20 -9 54 -27
75 -41z m-233 7 c-17 -22 -63 -69 -102 -106 -39 -36 -69 -68 -66 -70 3 -3 50
38 106 91 56 53 102 92 102 87 -1 -21 -152 -174 -219 -220 -91 -63 -161 -122
-144 -123 6 0 38 22 70 48 88 73 222 164 231 158 5 -3 15 -47 22 -98 7 -51 17
-102 21 -113 l8 -20 0 20 c0 11 -8 67 -18 125 -10 58 -15 109 -11 113 11 13
28 -45 44 -153 l14 -95 -47 -53 c-25 -29 -57 -68 -71 -87 -48 -66 -138 -71
-245 -11 -58 32 -102 84 -119 142 -7 22 6 35 245 244 55 48 198 158 207 160 2
0 -10 -18 -28 -39z m79 2 c-2 -31 -3 -33 -6 -10 -2 15 -9 27 -14 27 -6 0 -7 5
-4 10 13 22 25 8 24 -27z m-962 -56 c-22 -18 -79 -107 -69 -107 6 0 25 24 43
52 32 51 34 52 37 25 3 -21 -7 -38 -45 -78 -54 -57 -68 -78 -58 -87 4 -4 11 2
18 13 17 32 86 101 87 87 0 -7 -25 -39 -55 -72 -64 -69 -71 -65 -62 32 5 53
13 71 59 139 l53 78 3 -36 c2 -21 -2 -39 -11 -46z m992 41 c0 -27 -2 -29 -8
-13 -5 11 -6 26 -4 33 8 21 13 13 12 -20z m-54 -148 c19 -119 23 -135 31 -127
5 5 -21 179 -33 220 -4 15 0 18 23 15 27 -3 30 -7 50 -96 l22 -93 -32 -41
c-17 -23 -36 -43 -42 -45 -6 -2 -15 34 -22 93 -6 52 -18 106 -26 119 -10 15
-12 26 -6 30 6 3 10 11 10 17 0 6 -12 1 -27 -13 -21 -18 -24 -19 -13 -4 33 46
45 57 47 44 0 -8 9 -61 18 -119z m-981 -106 c-27 -31 -50 -52 -52 -46 -3 11
76 102 90 102 5 0 -12 -25 -38 -56z m2 -39 c-15 -19 -26 -41 -24 -47 2 -7 -2
-14 -7 -16 -23 -7 -14 30 16 63 41 45 49 45 15 0z m1094 -9 c0 -25 -7 -39 -22
-50 -50 -35 -58 -12 -18 48 31 45 40 45 40 2z"/>
<path d="M1847 2063 c-4 -3 -7 -11 -7 -17 0 -6 5 -5 12 2 6 6 9 14 7 17 -3 3
-9 2 -12 -2z"/>
<path d="M1856 2014 c-4 -10 -1 -14 6 -12 15 5 23 28 10 28 -5 0 -13 -7 -16
-16z"/>
<path d="M1845 1979 c-11 -17 1 -21 15 -4 8 9 8 15 2 15 -6 0 -14 -5 -17 -11z"/>
<path d="M1851 1936 c-26 -28 -18 -35 13 -11 10 7 16 19 14 25 -2 6 -14 0 -27
-14z"/>
<path d="M2004 1400 c-6 -6 -39 -26 -75 -45 -35 -19 -58 -35 -51 -35 17 0 129
57 137 70 9 15 1 22 -11 10z"/>
<path d="M1946 1325 c-43 -21 -78 -45 -65 -45 3 0 24 9 47 20 22 11 45 20 50
20 5 0 15 7 22 15 17 20 4 18 -54 -10z"/>
<path d="M1602 1810 c0 -19 2 -27 5 -17 2 9 2 25 0 35 -3 9 -5 1 -5 -18z"/>
<path d="M1572 1805 c0 -16 2 -22 5 -12 2 9 2 23 0 30 -3 6 -5 -1 -5 -18z"/>
<path d="M1620 1651 c-6 -12 -14 -20 -18 -17 -4 2 -23 -9 -42 -25 -23 -19 -29
-29 -18 -29 9 0 26 12 37 26 12 15 21 23 21 19 0 -5 -27 -39 -60 -76 -33 -37
-60 -71 -60 -75 0 -12 133 134 148 163 8 14 11 27 9 30 -3 2 -10 -5 -17 -16z"/>
<path d="M1540 1645 c-8 -9 -8 -15 -2 -15 12 0 26 19 19 26 -2 2 -10 -2 -17
-11z"/>
<path d="M1560 1524 c-41 -40 -71 -74 -66 -74 13 0 113 89 131 116 30 47 10
34 -65 -42z"/>
<path d="M1586 1490 c-32 -33 -54 -60 -48 -60 13 0 112 99 112 111 0 13 -1 13
-64 -51z"/>
<path d="M1620 1455 c-30 -30 -50 -55 -44 -55 13 0 109 98 103 105 -3 2 -30
-20 -59 -50z"/>
<path d="M1650 1429 c-25 -21 -40 -38 -35 -39 14 0 91 67 85 73 -3 3 -25 -12
-50 -34z"/>
<path d="M1665 1390 c-16 -16 -24 -30 -19 -30 6 0 23 14 39 30 16 17 24 30 19
30 -6 0 -23 -13 -39 -30z"/>
<path d="M1697 1362 c-25 -27 -21 -35 8 -16 25 16 33 34 17 34 -5 0 -16 -8
-25 -18z"/>
<path d="M1660 1179 c-95 -78 -111 -93 -93 -88 18 6 192 143 193 152 0 15 -17
4 -100 -64z"/>
<path d="M1647 1127 c-64 -49 -115 -92 -112 -95 5 -5 230 162 240 178 14 23
-17 3 -128 -83z"/>
<path d="M1341 864 c-14 -54 -25 -130 -18 -123 9 7 38 151 33 157 -3 2 -9 -13
-15 -34z"/>
<path d="M1086 824 c-15 -31 -24 -59 -21 -62 7 -7 8 -5 34 56 30 73 20 78 -13
6z"/>
<path d="M1290 823 c-6 -32 -14 -66 -17 -77 -3 -11 -1 -16 5 -12 11 7 37 134
29 142 -3 3 -10 -21 -17 -53z"/>
<path d="M1375 848 c-8 -27 -25 -93 -25 -102 0 -28 20 16 28 62 9 48 7 69 -3
40z"/>
<path d="M1401 803 c-7 -29 -11 -58 -9 -65 3 -7 10 10 17 39 7 29 11 58 9 65
-3 7 -10 -10 -17 -39z"/>
<path d="M2261 1396 c-9 -10 -9 -16 -1 -21 12 -7 40 11 40 26 0 14 -26 10 -39
-5z"/>
<path d="M2081 1154 c0 -11 3 -14 6 -6 3 7 2 16 -1 19 -3 4 -6 -2 -5 -13z"/>
<path d="M1834 980 c4 -30 10 -88 13 -128 3 -40 10 -75 15 -78 5 -3 6 17 3 48
-17 141 -26 202 -32 207 -3 3 -3 -19 1 -49z"/>
<path d="M1864 985 c3 -22 9 -68 13 -102 3 -35 10 -63 14 -63 5 0 9 3 9 8 0
21 -32 188 -37 192 -3 3 -3 -13 1 -35z"/>
<path d="M1765 921 c3 -35 5 -87 5 -114 0 -28 3 -47 7 -43 10 10 3 174 -8 200
-7 15 -8 2 -4 -43z"/>
<path d="M1807 880 c3 -58 10 -109 15 -115 6 -6 7 15 3 60 -14 134 -24 164
-18 55z"/>
<path d="M1731 891 c-1 -48 2 -72 9 -65 6 6 6 34 1 74 l-8 65 -2 -74z"/>
<path d="M1984 1110 c3 -14 10 -51 16 -82 6 -32 15 -58 19 -58 9 0 -21 145
-32 157 -5 4 -6 -3 -3 -17z"/>
<path d="M2026 865 c-9 -14 -13 -25 -8 -25 10 0 42 33 42 43 0 15 -19 5 -34
-18z"/>
<path d="M2680 1890 c0 -10 11 -36 25 -56 14 -20 29 -53 35 -73 13 -47 13
-595 0 -641 -5 -20 -21 -51 -35 -70 -14 -19 -25 -42 -25 -52 0 -16 12 -18 140
-18 158 0 162 3 116 71 -36 53 -46 102 -46 232 l0 117 100 0 100 0 0 30 0 30
-100 0 -100 0 0 195 0 195 38 0 c122 -1 241 -34 322 -87 19 -13 50 -23 69 -23
32 0 33 1 27 31 -3 17 -6 56 -6 85 l0 54 -330 0 c-321 0 -330 -1 -330 -20z"/>
<path d="M5180 1890 c0 -11 11 -37 24 -58 41 -62 48 -133 44 -432 -3 -262 -4
-277 -25 -317 -13 -23 -27 -44 -33 -48 -5 -3 -10 -17 -10 -31 l0 -24 140 0
c100 0 140 3 140 12 0 6 -14 34 -32 61 -30 46 -33 59 -36 147 l-4 97 38 31 37
31 104 -130 c105 -132 116 -158 88 -195 -8 -10 -15 -27 -15 -36 0 -16 13 -18
140 -18 127 0 140 2 140 18 0 10 -23 31 -56 50 -36 22 -100 83 -185 177 -109
120 -136 144 -162 147 -31 3 -27 7 88 94 66 50 141 99 167 110 73 29 62 44
-32 44 -75 0 -80 1 -80 21 0 36 31 88 73 125 50 42 119 64 203 64 l63 0 -9
-31 c-17 -57 23 -110 84 -112 78 -2 117 93 61 148 -23 24 -30 25 -143 25 -136
0 -196 -14 -268 -63 -61 -40 -91 -99 -101 -192 l-8 -70 -110 -83 -110 -84 -5
269 -5 268 -102 3 c-98 3 -103 2 -103 -18z"/>
<path d="M4120 1617 c-105 -24 -175 -79 -222 -175 -29 -58 -33 -76 -33 -147 0
-66 5 -90 26 -135 33 -70 89 -126 159 -159 47 -22 68 -26 150 -26 83 0 101 4
145 27 70 36 155 132 155 174 0 2 -19 4 -43 4 -43 0 -43 0 -55 -47 -9 -31 -27
-60 -56 -90 -39 -39 -48 -43 -91 -43 -61 0 -105 21 -156 77 -39 43 -89 137
-103 196 l-6 27 270 0 270 0 -6 43 c-27 187 -217 316 -404 274z m98 -52 c50
-21 118 -89 148 -147 13 -26 24 -52 24 -58 0 -7 -66 -10 -202 -8 l-203 3 -3
27 c-6 51 18 111 63 155 38 38 47 43 89 43 26 0 63 -7 84 -15z"/>
<path d="M3340 1603 c0 -10 14 -45 30 -77 30 -59 30 -60 30 -231 0 -173 0
-173 -30 -230 -16 -31 -30 -63 -30 -71 0 -11 26 -14 135 -14 109 0 135 3 135
14 0 8 -13 40 -30 71 l-30 57 0 178 0 178 31 26 c38 32 102 35 161 6 47 -23
52 -19 62 43 8 49 0 58 -57 64 -51 6 -131 -17 -171 -48 l-26 -20 0 35 0 36
-105 0 c-93 0 -105 -2 -105 -17z"/>
<path d="M4757 1605 c-88 -32 -127 -82 -127 -160 0 -39 5 -50 38 -82 21 -21
81 -65 135 -97 164 -101 215 -173 155 -218 -29 -23 -107 -34 -162 -24 -21 4
-54 25 -84 51 -28 25 -59 45 -71 45 -18 0 -21 -6 -21 -44 l0 -44 63 -22 c88
-31 250 -39 312 -15 83 31 122 117 91 198 -22 58 -83 114 -196 180 -155 90
-172 104 -168 135 5 39 59 72 120 72 44 0 54 -4 97 -45 26 -25 58 -45 70 -45
18 0 21 6 21 44 0 38 -3 45 -27 54 -88 34 -181 41 -246 17z"/>
<path d="M5974 1609 c-3 -6 7 -36 22 -67 29 -57 29 -58 29 -247 0 -188 0 -191
-27 -242 -16 -29 -28 -57 -28 -63 0 -6 44 -10 120 -10 139 0 137 -2 93 89 -28
56 -28 57 -31 304 l-4 247 -83 0 c-50 0 -87 -4 -91 -11z"/>
<path d="M6455 1604 c-51 -28 -105 -89 -105 -119 0 -3 24 -5 53 -4 50 0 53 2
89 48 20 27 48 51 61 55 34 8 72 -8 92 -38 17 -25 34 -146 21 -146 -4 0 -21 7
-38 16 -41 21 -133 21 -183 0 -178 -76 -187 -324 -14 -410 59 -29 96 -32 198
-14 49 8 85 9 125 2 l56 -11 0 234 c0 210 -2 238 -19 271 -41 80 -119 124
-230 129 -57 3 -84 -1 -106 -13z m113 -228 c120 -62 154 -288 51 -341 -104
-55 -219 63 -219 224 0 56 14 91 50 118 21 17 85 16 118 -1z"/>
</g>
</svg>
