<svg version="1.2" xmlns="http://www.w3.org/2000/svg" viewBox="0 0 239 238" width="239" height="238">
	<title>logo</title>
	<style>
		.s0 { fill: #ffffff } 
	</style>
	<g>
		<path class="s0" d="m139.8 10.4c-2.6 0.7-5.3 1.8-6.1 2.5-2.4 1.9-2.6 8.1-0.5 14.1 2.3 6.6 2.1 15.7-0.6 21.2l-1.8 3.8h-42.7c-23.4 0-44.3 0.3-46.4 0.7-3 0.5-4.4 1.4-6.5 4.5-3.6 5.6-3.9 12.7-1.2 31 2.7 17.9 2.2 25.2-3.5 53.3-5 24.3-6.1 36.1-4.7 46.5 1.6 11 5.1 21.9 7.7 23.6 5.7 3.7 43.4 6.8 64 5.2l11.4-0.9 7.8 3.9c13.7 6.9 22.8 8.7 29.8 5.8 1.8-0.8 7.1-5.3 11.6-10 6.4-6.7 9.2-8.8 12.3-9.7 6.1-1.5 14.5-5 15.3-6.3 0.4-0.6 1-5.4 1.3-10.7 0.6-9.5 0.6-9.6 5.2-15.5 8.2-10.6 9.7-16.1 5.8-21.9-1.1-1.7-2-3.5-2-4.2 0-0.6 2.8-3.3 6.3-6 13-10 18.7-16.4 18.7-21.2 0-2.9-4.7-6.2-7.9-5.5-3.8 0.9-11.5 6.2-20.1 13.8-4.1 3.6-7.9 6.5-8.5 6.3-1.5-0.5-2.2-6.1-3.4-24.7-1.3-21.6-4.1-32.8-11.7-47.5-5.7-11-5.7-11-6.1-21.5-0.3-5.8 0-13.9 0.5-18 0.5-4.1 0.6-8.5 0.1-9.7-1.5-4.1-14.1-5.6-24.1-2.9zm17 3.2c6 1.7-1.2 4.4-11.4 4.4-6 0-7.4-0.3-7.4-1.5 0-0.9 1-2 2.3-2.5 2.5-1 13.1-1.3 16.5-0.4zm3.2 9.3c0 1.4-1 2-4.6 2.5-10.9 1.4-20.4 0.3-20.4-2.4 0-0.5 3.9-1.1 8.8-1.3 4.8-0.1 10.4-0.4 12.5-0.5 3-0.2 3.7 0.1 3.7 1.7zm-3.2 7c0.9 0.5 1.7 4.4 2.2 10.7 1.3 14.1 1.3 14-2.1 17.9-3.2 3.6-2.8 4.7 0.7 2 1-0.8 2.7-1.5 3.6-1.5 2.6 0 1.1 2.7-3.1 5.5-1.9 1.4-3 2.5-2.3 2.5 0.7 0 3-1.1 5-2.5 2.6-1.7 3.9-2.2 4.7-1.4 0.7 0.8-0.6 2.6-4.5 6.1l-5.5 5 5.6-3.1c6.3-3.5 7.9-3.8 7.9-1.6 0 0.8-2.5 3.1-5.5 5.1-7 4.7-6.4 5.6 0.9 1.5 3.6-2.1 5.7-2.8 6.1-2.1 1 1.6-2.1 4.7-7.7 7.8-7.3 4.1-5.7 4.7 2.1 0.7 5.5-2.7 7.1-3.2 8-2.1 1.5 1.8-0.2 3.7-7.9 8.5-8 5-7 5.4 1.6 0.6 6.8-3.8 8.4-4.2 8.4-2.1 0 1.9-5.2 6.1-11.2 9.2-2.8 1.4-4.8 2.8-4.5 3 0.2 0.3 3.9-1.2 8-3.3 7.7-3.7 11.3-3.8 6.7-0.1-1.4 1.1-5.1 3.3-8.2 4.9-3.1 1.6-5.9 3.3-6.3 3.9-0.8 1.3 2.5 0.1 10.4-4 4.8-2.4 6.1-2.7 6.1-1.5 0 1.7-8.7 8.7-15.1 12.2-2.4 1.3-3.7 2.3-2.9 2.3 0.9 0 5-2 9.2-4.5 4.3-2.5 8.5-4.5 9.4-4.5 2.9 0-2.1 4.6-9.8 9.1-3.8 2.2-6.8 4.2-6.8 4.5 0 0.2 3.6-1.4 8-3.6 4.5-2.2 8.5-3.8 9-3.5 1.9 1.2-0.6 4-7.9 8.6-9.2 5.9-8.5 6.4 1.4 0.9l7.3-4 0.7 6.6c0.7 6.1 0.6 6.8-1.6 8.9-1.3 1.3-6.8 4.9-12.3 8-10 5.7-11.5 5.9-11.6 1.5-0.1-4.8-6.1-23.9-13.2-41.8-7.8-19.4-8.1-20.6-6.3-21.6 7-4 8.1-9.1 4.4-19.1-2.1-5.6-2.1-7.1 0-15 0.6-2.2 1.1-6.3 1.1-9.2v-5.2l6.8-0.4c3.7-0.2 7.4-0.4 8.2-0.5 0.8-0.1 2.1 0.2 2.8 0.7zm-24.7 27.2c1 0.5 2.3 2.6 2.9 4.7 1.2 4.6 1.3 7.5 0.1 6.8-1.1-0.7-2.7 1.2-3.4 3.9-0.3 1.3-0.5 0.7-0.6-1.5l-0.2-3.5-1.4 3.2c-2 4.7-3.5 4.1-3.5-1.5 0-3.4-0.3-4.3-1-3.2-0.5 0.8-1 2.6-1 4 0 3.9-1.1 4.8-6.5 5.1l-5 0.4-0.6-4.5c-0.4-2.7-0.7-3.4-0.7-1.8-0.2 3.5-2.2 7.9-3.3 7.2-0.5-0.3-0.9-2.6-1-5.2l-0.1-4.7-0.9 4.2c-0.6 2.3-1.6 4.7-2.4 5.3-1.3 1.1-1.5 0.5-1.6-3.6-0.1-5-0.3-5-1.3-0.2-1 4.3-2.9 3.4-2.4-1.1 0.2-2.2 0-3.7-0.4-3.5-0.5 0.3-0.8 1.1-0.8 1.9 0 0.8-0.5 2.6-1 4.1-1.6 4.1-3.5 1.5-3.1-4.2 0.2-3.1-0.1-4.4-0.8-4-0.6 0.4-1.1 1.8-1.1 3.1 0 3-1 5.5-2.1 5.5-0.5 0-0.9-2.5-0.9-5.6 0-3.4-0.4-5.3-1-4.9-0.5 0.3-1 2.1-1 4 0 7.4-3.7 9.4-4.2 2.2l-0.3-4.2-1.3 4.2c-1.4 4.6-3.2 5.7-3.2 2 0-1.8-0.3-1.7-1.8 1.2-2.1 4.3-3.8 3.7-3.4-1.2 0.3-5.1-1.1-4.7-2.6 0.9-1.3 5-3.1 5.1-3.3 0.1l-0.1-3.2-0.9 3.3c-1.3 4.5-3.3 3-2.6-2 0.6-4.7-0.4-4.1-1.8 0.9-1.4 4.9-2.9 4.7-3.3-0.5-0.3-4.6-2.2-4.9-2.2-0.3 0 2.8-1.6 5.1-3.6 5.1-0.8 0-1.4-2.7-1.7-7.8-0.3-4.2-0.9-9-1.3-10.6l-0.7-2.9 41.3 0.7c23.3 0.4 42.1 1.1 43.1 1.7zm-88.2 2.5c3.7 4.7 3.9 14 0.3 15.2-0.9 0.3-1.2-0.8-1-3.8 0.2-2.8-0.2-4.4-1-4.7-1.4-0.5-4.2 5.4-4.2 9.1 0 1.4-0.5 2.8-1.1 3.2-0.9 0.5-1.1-1.7-0.7-8.3 0.8-12.8 3.3-16.3 7.7-10.7zm83.8 21.1c0.3 1 3.5 8.8 7 17.3 10.9 26 16.8 47.4 14.3 52-0.6 1.1-5 4.6-9.7 7.6-9.2 6-30.3 21.3-30.3 22 0 0.7 4-1.5 9.5-5.3 3.9-2.6 2.7-1.2-5.6 6.9-5.9 5.7-11.1 11.2-11.7 12.3-0.5 1.1-1.3 4.2-1.6 7-0.4 2.7-1.2 6.9-1.8 9.2l-1 4.3h-11.9c-6.7 0-11.9-0.4-11.9-0.9 0-0.6 0.9-4.7 2-9.3 1.1-4.6 2-9.7 1.9-11.3 0-1.7-1.1 1.6-2.4 7.2-2.6 11.3-3.9 14.3-6 14.3-2 0-1.9-0.2 1-10 3.4-11.4 3-13.5-0.6-3.1-2.6 7.5-5.5 12.8-6.6 11.7-0.2-0.2 0.3-3.4 1.2-7 2.3-10.2 1.7-12.2-0.9-2.8-2.5 9.1-3.9 11.3-5.8 9.4-0.9-0.9-0.5-3.2 1.7-10.2 1.6-4.9 2.6-9.2 2.3-9.5-0.3-0.4-1.6 2.4-2.8 6.2-3.5 10.5-4.6 12.3-7.8 12.3-3.5 0-7.3-1.1-6.8-1.9 0.8-1.3 3.5-11.1 3-11.1-0.2 0-1.5 2.4-2.8 5.4-2.3 5.2-4.2 7.4-5.3 6.2-0.3-0.3 1-6.3 3-13.3 6-21 7-29.2 6.3-48.8-0.7-20.5-3-42.5-5.7-55.9-1.1-5.4-1.7-10.2-1.2-10.7 1.2-1.2 10.4-1.5 50.6-1.7 33.3-0.2 35.8-0.1 36.4 1.5zm-87.6 35c-0.9 1.6-1 1.5-1.1-0.8 0-1.4 0.3-2.9 0.8-3.3 1.2-1.2 1.4 2.2 0.3 4.1zm175.9 4.8c0 1.4-0.8 3.7-1.7 5.1-1.9 3-16.2 14.8-20.6 17-3.1 1.7-7.8 1.5-8.4-0.2-0.8-2.3 25.7-24.4 29.2-24.4 0.9 0 1.5 1 1.5 2.5zm-173.9 6.2c-1.5 2.8-4 5.9-4.1 5 0-1.6 3.1-6.7 4.1-6.7 0.6 0 0.6 0.6 0 1.7zm-0.1 6.8c-1.2 3.1-5.6 10.2-7 11-1.4 0.9 0.3-3.5 3.6-9.1 2.8-4.7 5-6 3.4-1.9zm134.5 4.4c-0.3 0.6-1.4 1.1-2.3 1.1-1.5-0.1-1.5-0.2 0.2-1.5 2.1-1.6 3.2-1.3 2.1 0.4zm-132.5 4.2c0 1.6-0.4 2.9-0.8 2.9-0.5 0-2.9 2.9-5.5 6.5-7.2 10-8.5 7.9-2-3.3 6.1-10.7 8.3-12.3 8.3-6.1zm140.7 4.9c14.4 7.2 14.8 13.3 1.6 27.9q-6.3 7.2-6.3 0.3c0-1.5-0.7-5.2-1.5-8.2-1.8-6.8-1.8-7-0.1-7 1.5 0 2.6 2.1 2.6 4.9 0 0.9 0.7 2.6 1.5 3.7 1.4 1.7 1.4 1.5 0.9-2.6l-0.7-4.5 2.2 1.9c3 2.7 3.6 1.5 0.9-1.9-1.2-1.5-2.4-4.4-2.7-6.4-0.4-2.2-1.2-3.6-2.1-3.6-0.8 0-1.8-0.7-2.2-1.5-0.5-1.2-0.7-1.2-0.7 0.2-0.2 3.7-2.1 1.6-2.1-2.2 0-4.9 0.7-5 8.7-1zm-20.7-1.4c0 0.3-5.7 6.4-12.7 13.5-6.9 7.1-12.2 12.9-11.7 12.9 0.5 0 6.3-5 12.8-11 6.6-6 12.2-10.8 12.4-10.5 1.7 1.7-18.5 21.2-33.9 32.7-11.6 8.7-16.2 12.8-12.7 11.5 0.9-0.3 7.4-4.9 14.3-10.2 11.6-8.9 22.9-16.5 24.6-16.5 0.8 0 2.1 5.5 4.5 19.5 0.9 5.5 1.9 9.4 2.1 8.8 0.3-0.7-0.5-7.3-1.6-14.8-2.4-15.3-2.5-16.5-1.1-16.5 1.3 0 3.6 8.7 5.5 21.2l1.7 10.8-9.8 11.6c-11.1 13.3-13.7 14.9-22.4 14.1-12.4-1.1-25.2-9.3-29.9-19-3.2-6.7-2.8-7.8 5.2-15.2 12.1-11.3 32.7-28.8 42.6-36.4 9.4-7.1 10.1-7.6 10.1-6.5zm6.8 3.5l0.3 3.4-1.6-2.9c-1.8-3.4-1.9-4.9-0.2-4.4 0.6 0.3 1.3 2 1.5 3.9zm-132.3 13.4c-3 4.3-5.3 8-5 8.3 0.3 0.3 0.7 0.3 0.8 0.1 0.2-0.2 2.3-3 4.6-6.2 2.3-3.1 4.4-5.7 4.6-5.7 0.3 0 0.5 1.3 0.5 2.8 0 2-1.6 4.7-5.6 9.3-7 8-8.9 10.8-7.9 11.7 0.4 0.4 1.5-0.4 2.4-1.8 2.4-3.7 9.2-11 10.2-11 1.9 0 0.6 1.9-6.1 9.1-8.2 8.7-9.4 8.4-8.4-2.1 0.8-8 2.7-12.6 9.5-22.6l5.4-7.9 0.3 4.1c0.3 3.6-0.4 5.1-5.3 11.9zm136.2-9.8c-0.4 1.7-0.4 1.7-1.2 0-0.4-0.9-0.4-2.5 0-3.5 0.8-1.6 0.8-1.6 1.2 0 0.3 1 0.3 2.6 0 3.5zm-6.7 19.6c1.2 8.1 2.7 15 3.2 15.3 0.6 0.4 0.7-1.2 0.3-4.2-1-7.3-3.4-21.6-4.1-24.2-0.6-1.9-0.3-2.2 2.5-2.2 3.8 0 4.7 1.7 8.1 15.8l2.2 9.2-4.2 5.5c-2.4 3.1-4.7 5.8-5.1 6.1-1.4 0.8-2.5-3.2-3.8-13-0.7-4.9-1.9-10.8-2.7-13.3-0.8-2.4-1.2-5.4-0.8-6.5 0.7-2.2 0.6-2.2-2.1-0.4-3 2-2.7 0.7 0.8-3.2 1.5-1.6 2.3-1.9 2.8-1 0.3 0.7 1.6 7.9 2.9 16.1zm-127.7 8.7c-2.2 3.8-10.3 11.8-10.3 10.3 0-1.1 10.7-13.3 11.7-13.3 0.2 0-0.4 1.4-1.4 3zm-1.8 7.7c-1 1.6-2.4 3.7-3.2 4.8-0.7 1.1-1.3 2.7-1.3 3.7 0 1-0.7 1.8-1.5 1.8-1.8 0-1.8-0.1-0.6-3.3 0.9-2.4 6.8-9.7 7.8-9.7 0.3 0-0.3 1.2-1.2 2.7zm144.5 2.9c0 2.6-0.8 4.3-2.9 6.5-6.9 6.8-7.6-0.4-0.8-7.9 2.9-3.1 3.7-2.8 3.7 1.4z"/>
	</g>
</svg>